# xmcd CD database file
#
# Track frame offsets:
#	150
#	34646
#	68697
#	110322
#	143623
#	180958
#	203908
#	241559
#	269386
#
# Disc length: 4021 seconds
#
# Revision: 0
# Processed by: cddbd v1.5.2PL0 Copyright (c) Steve Scherf et al.
# Submitted via: CDex 1.51
#
DISCID=6b0fb309
DTITLE=Sean Dobbins and The Modern Jazz Messengers - Blue Horizons
DYEAR=2008
DGENRE=Jazz
TTITLE0=One By One
TTITLE1=Lester Left Town
TTITLE2=Sky Dive
TTITLE3=Ping Pong
TTITLE4=Blue Horizons
TTITLE5=Humpty Dumpty
TTITLE6=Pensativa
TTITLE7=Bolivia
TTITLE8=Sail Away
EXTD=YEAR: 2008
EXTT0=
EXTT1=
EXTT2=
EXTT3=
EXTT4=
EXTT5=
EXTT6=
EXTT7=
EXTT8=
PLAYORDER=
